<svg viewBox="0 0 23.8521 24.9999" xmlns="http://www.w3.org/2000/svg" xmlns:xlink="http://www.w3.org/1999/xlink" width="23.852112" height="24.999908" fill="none" customFrame="#000000">
	<path id="Union" d="M12.745 11.7767C14.2283 10.619 17.7562 8.62089 19.6504 8.62089C22.0901 8.62089 23.8521 10.0315 23.8521 12.5707C23.8521 14.8278 22.1206 16.3795 19.6503 16.3795C17.2724 16.3795 13.8602 14.2714 12.5755 13.1312L16.0801 24.9999C13.1151 23.7977 11.1443 23.8205 8.0401 24.9999L11.2971 13.1414C9.91846 14.3165 6.52794 16.3795 4.20176 16.3795C1.73148 16.3795 0 14.8278 0 12.5707C0 10.0315 1.76203 8.62089 4.20176 8.62089C6.02588 8.62089 9.43382 10.4322 11.0375 11.5821C9.94312 9.84722 8.30797 6.4076 8.30797 4.5052C8.30797 1.88928 9.62361 0 11.9918 0C14.0968 0 15.544 1.85652 15.544 4.5052C15.544 6.88008 13.8382 10.2172 12.745 11.7767Z" fill="rgb(0,0,0)" fill-rule="evenodd" />
</svg>
